<svg width="84" height="50" viewBox="0 0 84 50" fill="none" xmlns="http://www.w3.org/2000/svg">
<path d="M42.3052 2.76068L29.6424 12.97C27.5363 14.6629 27.1308 17.71 28.7267 19.8847C30.4142 22.2027 33.6977 22.6584 35.9608 20.9004L48.9506 10.8474C49.8663 10.1442 51.1744 10.3005 51.8939 11.212C52.6134 12.1236 52.4433 13.4258 51.5276 14.142L48.7936 16.2516L66.9768 32.9198V8.33413H66.8852L66.375 8.00858L56.8779 1.95331C54.8765 0.677148 52.5349 0 50.1541 0C47.3023 0 44.5291 0.976656 42.3052 2.76068ZM45.2878 18.9602L38.5247 24.195C34.4041 27.3985 28.4259 26.5651 25.3387 22.3459C22.4346 18.3742 23.1672 12.8268 27 9.74052L37.8837 0.976656C36.3663 0.338574 34.7311 0.0130219 33.0698 0.0130219C30.6105 -1.99303e-07 28.2166 0.729237 26.1628 2.08353L16.7442 8.33413V37.5036H20.4331L32.3895 48.364C34.9535 50.695 38.9172 50.5127 41.2587 47.9603C41.9782 47.166 42.4622 46.2414 42.7108 45.2778L44.9346 47.3092C47.4855 49.6402 51.4622 49.4709 53.8038 46.9316C54.3924 46.2935 54.8241 45.5513 55.0988 44.7829C57.6366 46.4758 61.0901 46.1242 63.2224 43.8063C65.564 41.267 65.3939 37.3083 62.843 34.9773L45.2878 18.9602ZM2.09302 8.33413C0.941861 8.33413 0 9.27173 0 10.4177V37.5036C0 39.8085 1.87064 41.6707 4.18605 41.6707H8.37209C10.6875 41.6707 12.5581 39.8085 12.5581 37.5036V8.33413H2.09302ZM6.27907 33.3365C6.83418 33.3365 7.36654 33.5561 7.75906 33.9468C8.15158 34.3375 8.37209 34.8675 8.37209 35.4201C8.37209 35.9727 8.15158 36.5026 7.75906 36.8934C7.36654 37.2841 6.83418 37.5036 6.27907 37.5036C5.72397 37.5036 5.1916 37.2841 4.79908 36.8934C4.40656 36.5026 4.18605 35.9727 4.18605 35.4201C4.18605 34.8675 4.40656 34.3375 4.79908 33.9468C5.1916 33.5561 5.72397 33.3365 6.27907 33.3365ZM71.1628 8.33413V37.5036C71.1628 39.8085 73.0334 41.6707 75.3488 41.6707H79.5349C81.8503 41.6707 83.7209 39.8085 83.7209 37.5036V10.4177C83.7209 9.27173 82.7791 8.33413 81.6279 8.33413H71.1628ZM75.3488 35.4201C75.3488 34.8675 75.5694 34.3375 75.9619 33.9468C76.3544 33.5561 76.8868 33.3365 77.4419 33.3365C77.997 33.3365 78.5293 33.5561 78.9219 33.9468C79.3144 34.3375 79.5349 34.8675 79.5349 35.4201C79.5349 35.9727 79.3144 36.5026 78.9219 36.8934C78.5293 37.2841 77.997 37.5036 77.4419 37.5036C76.8868 37.5036 76.3544 37.2841 75.9619 36.8934C75.5694 36.5026 75.3488 35.9727 75.3488 35.4201Z" fill="#3248F2"/>
</svg>
