<svg width="50" height="50" viewBox="0 0 50 50" fill="none" xmlns="http://www.w3.org/2000/svg">
<path fill-rule="evenodd" clip-rule="evenodd" d="M22.2412 5.23132C17.7304 5.23132 13.4043 7.02323 10.2147 10.2128C7.02512 13.4024 5.23322 17.7285 5.23322 22.2393C5.23322 26.7501 7.02512 31.0761 10.2147 34.2657C13.4043 37.4553 17.7304 39.2472 22.2412 39.2472C26.752 39.2472 31.078 37.4553 34.2676 34.2657C37.4572 31.0761 39.2491 26.7501 39.2491 22.2393C39.2491 17.7285 37.4572 13.4024 34.2676 10.2128C31.078 7.02323 26.752 5.23132 22.2412 5.23132ZM5.0157e-08 22.2393C0.000302196 18.6927 0.848734 15.1976 2.47451 12.0456C4.10029 8.89366 6.45626 6.17616 9.34588 4.11988C12.2355 2.0636 15.575 0.728167 19.0857 0.22499C22.5963 -0.278188 26.1765 0.065484 29.5273 1.22733C32.8782 2.38918 35.9026 4.33552 38.3483 6.90396C40.794 9.47239 42.5899 12.5885 43.5864 15.9922C44.5829 19.3959 44.7509 22.9885 44.0765 26.4704C43.4021 29.9522 41.9049 33.2223 39.7096 36.0079L49.2655 45.5637C49.7421 46.0572 50.0059 46.7182 49.9999 47.4042C49.9939 48.0903 49.7188 48.7466 49.2336 49.2317C48.7485 49.7169 48.0922 49.9921 47.4061 49.998C46.7201 50.004 46.0591 49.7402 45.5656 49.2636L36.0098 39.7078C32.7301 42.2929 28.789 43.9026 24.6373 44.3525C20.4856 44.8024 16.2911 44.0743 12.5338 42.2517C8.77654 40.429 5.60832 37.5854 3.39173 34.0462C1.17514 30.507 -0.000280352 26.4153 5.0157e-08 22.2393ZM19.6246 13.0811C19.6246 12.3872 19.9002 11.7216 20.3909 11.2309C20.8817 10.7402 21.5472 10.4645 22.2412 10.4645C25.364 10.4645 28.359 11.7051 30.5672 13.9133C32.7753 16.1215 34.0159 19.1164 34.0159 22.2393C34.0159 22.9332 33.7402 23.5988 33.2495 24.0895C32.7588 24.5802 32.0933 24.8559 31.3993 24.8559C30.7053 24.8559 30.0398 24.5802 29.5491 24.0895C29.0584 23.5988 28.7827 22.9332 28.7827 22.2393C28.7827 20.5044 28.0935 18.8405 26.8667 17.6137C25.6399 16.3869 23.9761 15.6978 22.2412 15.6978C21.5472 15.6978 20.8817 15.4221 20.3909 14.9314C19.9002 14.4407 19.6246 13.7751 19.6246 13.0811Z" fill="#3248F2"/>
</svg>
