<svg width="50" height="46" viewBox="0 0 50 46" fill="none" xmlns="http://www.w3.org/2000/svg">
<path d="M31.8179 45.9184H9.09167V41.3281H31.8179V45.9184ZM47.7263 4.59023L36.9654 18.2576L36.4654 18.8773L23.6706 35.3792C23.2483 35.8057 22.7469 36.144 22.1952 36.3748C21.6434 36.6056 21.052 36.7244 20.4548 36.7244C19.8576 36.7244 19.2662 36.6056 18.7144 36.3748C18.1627 36.144 17.6613 35.8057 17.239 35.3792C16.8167 34.9527 16.4817 34.4464 16.2532 33.8892C16.0246 33.332 15.907 32.7347 15.907 32.1316C15.907 31.5285 16.0246 30.9312 16.2532 30.374C16.4817 29.8168 16.8167 29.3105 17.239 28.884L47.7263 4.59023ZM3.73964 12.0126C0.456908 17.3225 -0.723772 23.6867 0.43297 29.8365H2.2738V27.5414C2.24903 23.0223 3.58881 18.6029 6.11453 14.8723L3.73964 12.0126ZM25 2.42707e-07C21.5243 -0.000487382 18.087 0.733797 14.9092 2.15561C11.7313 3.57743 8.88341 5.6553 6.5486 8.25553L9.14849 11.3838C12.2336 8.51886 16.2637 6.9154 20.4548 6.88534C24.6684 6.91501 28.7189 8.53421 31.8111 11.4251L39.8789 4.99417C35.5828 1.75176 30.3633 -0.000178027 25 2.42707e-07ZM40.5221 21.1151L39.9925 21.7738L38.3381 23.9082C38.5314 25.1095 38.631 26.3243 38.6358 27.5414V29.8365H49.5671C50.6456 24.0927 49.6941 18.1489 46.8786 13.0408L40.5221 21.1151Z" fill="#3248F2"/>
</svg>
