<svg width="45" height="50" viewBox="0 0 45 50" fill="none" xmlns="http://www.w3.org/2000/svg">
<path d="M22.0588 25C29.0211 25 34.6639 19.4043 34.6639 12.5C34.6639 5.5957 29.0211 0 22.0588 0C15.0965 0 9.45378 5.5957 9.45378 12.5C9.45378 19.4043 15.0965 25 22.0588 25ZM31.4929 28.1836L26.7857 46.875L23.6345 33.5938L26.7857 28.125H17.3319L20.4832 33.5938L17.3319 46.875L12.6247 28.1836C5.60333 28.5156 0 34.209 0 41.25V45.3125C0 47.9004 2.11725 50 4.72689 50H39.3908C42.0004 50 44.1176 47.9004 44.1176 45.3125V41.25C44.1176 34.209 38.5143 28.5156 31.4929 28.1836Z" fill="#3248F2"/>
</svg>
