<svg width="52" height="50" viewBox="0 0 52 50" fill="none" xmlns="http://www.w3.org/2000/svg">
<path d="M14.334 33.9286H3.5835C1.6072 33.9286 0 32.3268 0 30.3572V19.6429C0 17.6732 1.6072 16.0715 3.5835 16.0715H14.334C16.3103 16.0715 17.9175 17.6732 17.9175 19.6429V30.3572C17.9175 32.3268 16.3103 33.9286 14.334 33.9286ZM3.5835 19.6429V30.3572H14.334V19.6429H3.5835ZM26.8763 50C26.2277 50 25.5862 49.975 24.9483 49.9286C17.1506 49.3357 9.9693 45.05 5.7354 38.4643L8.7545 36.5357C10.5534 39.3281 12.9756 41.6683 15.832 43.3736C18.6883 45.0788 21.9015 46.103 25.2207 46.3661C25.7672 46.4071 26.319 46.4286 26.8763 46.4286V50ZM39.4185 50L35.6558 48.2143C32.6099 46.7857 30.4598 43.5714 30.4598 40.1786V28.5715H48.3773V40.1786C48.3773 43.5714 46.4064 46.7857 43.1812 48.2143L39.4185 50ZM34.0433 32.1429V40.1786C34.0433 42.3214 35.2975 44.1072 37.0893 45L39.4185 46.0714L41.7478 45C43.5396 44.1072 44.7938 42.1429 44.7938 40.1786V32.1429H34.0433ZM47.1266 17.8572C47.9401 20.1465 48.3773 22.5375 48.3773 25H51.9608C51.9608 22.5536 51.6042 20.1643 50.9144 17.8572H47.1266ZM46.5855 14.2858H41.2103C39.234 14.2858 37.6268 12.684 37.6268 10.7143V5.35719C37.6268 3.38755 39.234 1.78577 41.2103 1.78577H46.5855C48.5618 1.78577 50.169 3.38755 50.169 5.35719V10.7143C50.169 12.684 48.5618 14.2858 46.5855 14.2858ZM41.2103 5.35719V10.7143H46.5855V5.35719H41.2103ZM34.0433 1.04291C31.7177 0.35038 29.3034 -0.000925042 26.8763 5.28315e-05C22.6628 -0.00859443 18.5154 1.04441 14.8197 3.0612C11.1239 5.078 7.99963 7.99315 5.73719 11.5358L8.7545 13.4643C11.3626 9.38013 15.2855 6.30013 19.8802 4.72917C24.4749 3.15821 29.4688 3.1895 34.0433 4.8179V1.04291Z" fill="#3248F2"/>
</svg>
